<svg version="1.1" id="Layer_1" xmlns="http://www.w3.org/2000/svg" xmlns:xlink="http://www.w3.org/1999/xlink" x="0px" y="0px"
	 width="100%" viewBox="0 0 500 500" enable-background="new 0 0 500 500" xml:space="preserve">
<path fill="#47704C" opacity="1.000000" stroke="none" 
	d="
M1.000000,179.000000 
	C1.000000,119.348106 1.000000,60.196213 1.000000,1.022159 
	C167.610275,1.022159 334.220551,1.022159 500.915405,1.022159 
	C500.915405,167.568619 500.915405,334.137299 500.915405,500.852997 
	C334.333435,500.852997 167.666733,500.852997 1.000000,500.852997 
	C1.000000,393.779327 1.000000,286.639648 1.000000,179.000000 
M494.972626,304.500000 
	C494.970734,274.838623 495.090637,245.176605 494.936523,215.516006 
	C494.738556,177.418274 494.403320,139.320663 493.950134,101.225128 
	C493.801849,88.756500 489.715332,77.118279 484.377197,66.089363 
	C477.927246,52.763279 468.662933,41.503979 456.886841,32.351891 
	C440.419678,19.554058 422.062469,11.170761 401.051697,11.116129 
	C301.402740,10.857020 201.752686,10.954968 102.103287,11.105659 
	C95.772064,11.115233 89.301895,12.069376 83.138542,13.575279 
	C61.075089,18.966087 43.124512,30.846102 28.841440,48.568687 
	C14.621531,66.212906 7.226377,86.425293 7.155974,108.805489 
	C6.858757,203.286911 7.015450,297.769775 7.075445,392.252106 
	C7.078472,397.018585 7.321907,401.855988 8.144119,406.539093 
	C12.783982,432.966858 25.228910,454.990173 46.815243,471.115997 
	C63.961658,483.925018 83.380249,491.021484 105.103699,491.014618 
	C203.253571,490.983582 301.404144,491.163727 399.552246,490.749359 
	C409.455780,490.707550 419.716827,488.263672 429.158173,485.027222 
	C445.830170,479.312134 459.806793,469.308105 471.226654,455.474182 
	C486.663818,436.773621 494.579376,415.487701 494.884155,391.484100 
	C495.247986,362.826965 494.972076,334.161743 494.972626,304.500000 
z"/>
<path fill="#FFFFFE" opacity="1.000000" stroke="none" 
	d="
M494.972961,305.000000 
	C494.972076,334.161743 495.247986,362.826965 494.884155,391.484100 
	C494.579376,415.487701 486.663818,436.773621 471.226654,455.474182 
	C459.806793,469.308105 445.830170,479.312134 429.158173,485.027222 
	C419.716827,488.263672 409.455780,490.707550 399.552246,490.749359 
	C301.404144,491.163727 203.253571,490.983582 105.103699,491.014618 
	C83.380249,491.021484 63.961658,483.925018 46.815243,471.115997 
	C25.228910,454.990173 12.783982,432.966858 8.144119,406.539093 
	C7.321907,401.855988 7.078472,397.018585 7.075445,392.252106 
	C7.015450,297.769775 6.858757,203.286911 7.155974,108.805489 
	C7.226377,86.425293 14.621531,66.212906 28.841440,48.568687 
	C43.124512,30.846102 61.075089,18.966087 83.138542,13.575279 
	C89.301895,12.069376 95.772064,11.115233 102.103287,11.105659 
	C201.752686,10.954968 301.402740,10.857020 401.051697,11.116129 
	C422.062469,11.170761 440.419678,19.554058 456.886841,32.351891 
	C468.662933,41.503979 477.927246,52.763279 484.377197,66.089363 
	C489.715332,77.118279 493.801849,88.756500 493.950134,101.225128 
	C494.403320,139.320663 494.738556,177.418274 494.936523,215.516006 
	C495.090637,245.176605 494.970734,274.838623 494.972961,305.000000 
M154.762589,167.233795 
	C140.251068,205.515076 125.079178,243.563080 111.446510,282.154816 
	C101.366600,310.689301 93.212593,339.907928 84.395592,368.881134 
	C82.803917,374.111511 81.760857,379.584595 81.143852,385.022736 
	C78.367027,409.496643 91.487228,422.615936 116.121773,426.601105 
	C130.446396,428.918396 145.337265,427.894867 159.976517,428.029236 
	C165.825089,428.082916 169.565445,424.712494 171.214294,419.134155 
	C171.874527,416.900482 172.395218,414.624237 172.939468,412.357788 
	C177.875626,391.801727 182.863617,371.257721 187.662750,350.669678 
	C188.327881,347.816315 189.537415,346.933929 192.366852,346.943268 
	C220.357986,347.035645 248.349686,347.062653 276.340698,346.961609 
	C279.825317,346.949036 280.628510,348.254150 281.104828,351.543121 
	C282.797058,363.227966 284.366486,374.987610 287.100311,386.452332 
	C292.238434,407.999908 305.473358,421.749786 327.760101,426.043243 
	C346.278076,429.610687 364.955688,428.170471 383.567871,427.823029 
	C390.971344,427.684845 394.305084,422.838684 393.782440,415.211151 
	C393.498199,411.063049 393.198303,406.863556 392.311157,402.817535 
	C384.825745,368.679291 377.604126,334.475830 369.526672,300.476440 
	C357.638855,250.438477 345.215332,200.526627 332.804688,150.614578 
	C327.827301,130.596786 322.958740,110.508911 316.820831,90.833450 
	C308.887329,65.401932 292.513214,51.861927 264.174957,53.250984 
	C249.049347,53.992401 233.844360,53.760532 218.700058,53.241798 
	C209.043365,52.911034 202.889755,56.719025 199.124130,65.383507 
	C184.465973,99.111168 169.716904,132.799316 154.762589,167.233795 
z"/>
<path fill="#F3A81B" opacity="1.000000" stroke="none" 
	d="
M154.882111,166.867981 
	C169.716904,132.799316 184.465973,99.111168 199.124130,65.383507 
	C202.889755,56.719025 209.043365,52.911034 218.700058,53.241798 
	C233.844360,53.760532 249.049347,53.992401 264.174957,53.250984 
	C292.513214,51.861927 308.887329,65.401932 316.820831,90.833450 
	C322.958740,110.508911 327.827301,130.596786 332.804688,150.614578 
	C345.215332,200.526627 357.638855,250.438477 369.526672,300.476440 
	C377.604126,334.475830 384.825745,368.679291 392.311157,402.817535 
	C393.198303,406.863556 393.498199,411.063049 393.782440,415.211151 
	C394.305084,422.838684 390.971344,427.684845 383.567871,427.823029 
	C364.955688,428.170471 346.278076,429.610687 327.760101,426.043243 
	C305.473358,421.749786 292.238434,407.999908 287.100311,386.452332 
	C284.366486,374.987610 282.797058,363.227966 281.104828,351.543121 
	C280.628510,348.254150 279.825317,346.949036 276.340698,346.961609 
	C248.349686,347.062653 220.357986,347.035645 192.366852,346.943268 
	C189.537415,346.933929 188.327881,347.816315 187.662750,350.669678 
	C182.863617,371.257721 177.875626,391.801727 172.939468,412.357788 
	C172.395218,414.624237 171.874527,416.900482 171.214294,419.134155 
	C169.565445,424.712494 165.825089,428.082916 159.976517,428.029236 
	C145.337265,427.894867 130.446396,428.918396 116.121773,426.601105 
	C91.487228,422.615936 78.367027,409.496643 81.143852,385.022736 
	C81.760857,379.584595 82.803917,374.111511 84.395592,368.881134 
	C93.212593,339.907928 101.366600,310.689301 111.446510,282.154816 
	C125.079178,243.563080 140.251068,205.515076 154.882111,166.867981 
M243.499939,270.240082 
	C251.563202,270.240082 259.626465,270.240082 268.355927,270.240082 
	C261.004089,224.041199 253.836395,178.999603 246.668716,133.958008 
	C246.234848,133.943237 245.800995,133.928452 245.367142,133.913666 
	C232.891129,179.002136 220.415115,224.090607 207.645477,270.240265 
	C219.972061,270.240265 231.235992,270.240265 243.499939,270.240082 
z"/>
<path fill="#FFFEF9" opacity="1.000000" stroke="none" 
	d="
M242.999939,270.240173 
	C231.235992,270.240265 219.972061,270.240265 207.645477,270.240265 
	C220.415115,224.090607 232.891129,179.002136 245.367142,133.913666 
	C245.800995,133.928452 246.234848,133.943237 246.668716,133.958008 
	C253.836395,178.999603 261.004089,224.041199 268.355927,270.240082 
	C259.626465,270.240082 251.563202,270.240082 242.999939,270.240173 
z"/>
</svg>